ply
format ascii 1.0
comment VCGLIB generated
element vertex 362
property float x
property float y
property float z
element face 720
property list uchar int vertex_indices
end_header
0.1645946 0 0.9863613 
0.1565388 0.05086252 0.9863613 
0 0 1 
0.1331598 0.09674627 0.9863613 
0.09674627 0.1331598 0.9863613 
0.05086252 0.1565388 0.9863613 
1.007851e-17 0.1645946 0.9863613 
-0.05086252 0.1565388 0.9863613 
-0.09674627 0.1331598 0.9863613 
-0.1331598 0.09674627 0.9863613 
-0.1565388 0.05086252 0.9863613 
-0.1645946 2.015702e-17 0.9863613 
-0.1565388 -0.05086252 0.9863613 
-0.1331598 -0.09674627 0.9863613 
-0.09674627 -0.1331598 0.9863613 
-0.05086252 -0.1565388 0.9863613 
-3.023554e-17 -0.1645946 0.9863613 
0.05086252 -0.1565388 0.9863613 
0.09674627 -0.1331598 0.9863613 
0.1331598 -0.09674627 0.9863613 
0.1565388 -0.05086252 0.9863613 
0.1645946 0 -0.9863613 
0 0 -1 
0.1565388 0.05086252 -0.9863613 
0.1331598 0.09674627 -0.9863613 
0.09674627 0.1331598 -0.9863613 
0.05086252 0.1565388 -0.9863613 
1.007851e-17 0.1645946 -0.9863613 
-0.05086252 0.1565388 -0.9863613 
-0.09674627 0.1331598 -0.9863613 
-0.1331598 0.09674627 -0.9863613 
-0.1565388 0.05086252 -0.9863613 
-0.1645946 2.015702e-17 -0.9863613 
-0.1565388 -0.05086252 -0.9863613 
-0.1331598 -0.09674627 -0.9863613 
-0.09674627 -0.1331598 -0.9863613 
-0.05086252 -0.1565388 -0.9863613 
-3.023554e-17 -0.1645946 -0.9863613 
0.05086252 -0.1565388 -0.9863613 
0.09674627 -0.1331598 -0.9863613 
0.1331598 -0.09674627 -0.9863613 
0.1565388 -0.05086252 -0.9863613 
0.3246995 0 0.9458172 
0.3088076 0.1003377 0.9458172 
0.4759474 0 0.8794737 
0.4526529 0.1470758 0.8794737 
0.6142127 0 0.7891405 
0.584151 0.1898022 0.7891405 
0.7357239 0 0.6772816 
0.699715 0.2273512 0.6772816 
0.8371665 0 0.5469481 
0.7961926 0.2586987 0.5469481 
0.9157733 0 0.4016954 
0.8709522 0.2829895 0.4016954 
0.9694003 0 0.2454855 
0.9219545 0.2995611 0.2454855 
0.9965845 0 0.08257934 
0.9478081 0.3079616 0.08257934 
0.9965845 0 -0.08257934 
0.9478081 0.3079616 -0.08257934 
0.9694003 0 -0.2454855 
0.9219545 0.2995611 -0.2454855 
0.9157733 0 -0.4016954 
0.8709522 0.2829895 -0.4016954 
0.8371665 0 -0.5469481 
0.7961926 0.2586987 -0.5469481 
0.7357239 0 -0.6772816 
0.699715 0.2273512 -0.6772816 
0.6142127 0 -0.7891405 
0.584151 0.1898022 -0.7891405 
0.4759474 0 -0.8794737 
0.4526529 0.1470758 -0.8794737 
0.3246995 0 -0.9458172 
0.3088076 0.1003377 -0.9458172 
0.2626874 0.1908536 0.9458172 
0.3850495 0.2797548 0.8794737 
0.4969085 0.3610252 0.7891405 
0.5952132 0.4324477 0.6772816 
0.6772819 0.4920741 0.5469481 
0.7408762 0.538278 0.4016954 
0.7842613 0.5697992 0.2454855 
0.8062538 0.5857776 0.08257934 
0.8062538 0.5857776 -0.08257934 
0.7842613 0.5697992 -0.2454855 
0.7408762 0.538278 -0.4016954 
0.6772819 0.4920741 -0.5469481 
0.5952132 0.4324477 -0.6772816 
0.4969085 0.3610252 -0.7891405 
0.3850495 0.2797548 -0.8794737 
0.2626874 0.1908536 -0.9458172 
0.1908536 0.2626874 0.9458172 
0.2797548 0.3850495 0.8794737 
0.3610252 0.4969085 0.7891405 
0.4324477 0.5952132 0.6772816 
0.4920741 0.6772819 0.5469481 
0.538278 0.7408762 0.4016954 
0.5697992 0.7842613 0.2454855 
0.5857776 0.8062538 0.08257934 
0.5857776 0.8062538 -0.08257934 
0.5697992 0.7842613 -0.2454855 
0.538278 0.7408762 -0.4016954 
0.4920741 0.6772819 -0.5469481 
0.4324477 0.5952132 -0.6772816 
0.3610252 0.4969085 -0.7891405 
0.2797548 0.3850495 -0.8794737 
0.1908536 0.2626874 -0.9458172 
0.1003377 0.3088076 0.9458172 
0.1470758 0.4526529 0.8794737 
0.1898022 0.584151 0.7891405 
0.2273512 0.699715 0.6772816 
0.2586987 0.7961926 0.5469481 
0.2829895 0.8709522 0.4016954 
0.2995611 0.9219545 0.2454855 
0.3079616 0.9478081 0.08257934 
0.3079616 0.9478081 -0.08257934 
0.2995611 0.9219545 -0.2454855 
0.2829895 0.8709522 -0.4016954 
0.2586987 0.7961926 -0.5469481 
0.2273512 0.699715 -0.6772816 
0.1898022 0.584151 -0.7891405 
0.1470758 0.4526529 -0.8794737 
0.1003377 0.3088076 -0.9458172 
1.988211e-17 0.3246995 0.9458172 
2.914337e-17 0.4759474 0.8794737 
3.760968e-17 0.6142127 0.7891405 
4.50501e-17 0.7357239 0.6772816 
5.126166e-17 0.8371665 0.5469481 
5.607494e-17 0.9157733 0.4016954 
5.935865e-17 0.9694003 0.2454855 
6.10232e-17 0.9965845 0.08257934 
6.10232e-17 0.9965845 -0.08257934 
5.935865e-17 0.9694003 -0.2454855 
5.607494e-17 0.9157733 -0.4016954 
5.126166e-17 0.8371665 -0.5469481 
4.50501e-17 0.7357239 -0.6772816 
3.760968e-17 0.6142127 -0.7891405 
2.914337e-17 0.4759474 -0.8794737 
1.988211e-17 0.3246995 -0.9458172 
-0.1003377 0.3088076 0.9458172 
-0.1470758 0.4526529 0.8794737 
-0.1898022 0.584151 0.7891405 
-0.2273512 0.699715 0.6772816 
-0.2586987 0.7961926 0.5469481 
-0.2829895 0.8709522 0.4016954 
-0.2995611 0.9219545 0.2454855 
-0.3079616 0.9478081 0.08257934 
-0.3079616 0.9478081 -0.08257934 
-0.2995611 0.9219545 -0.2454855 
-0.2829895 0.8709522 -0.4016954 
-0.2586987 0.7961926 -0.5469481 
-0.2273512 0.699715 -0.6772816 
-0.1898022 0.584151 -0.7891405 
-0.1470758 0.4526529 -0.8794737 
-0.1003377 0.3088076 -0.9458172 
-0.1908536 0.2626874 0.9458172 
-0.2797548 0.3850495 0.8794737 
-0.3610252 0.4969085 0.7891405 
-0.4324477 0.5952132 0.6772816 
-0.4920741 0.6772819 0.5469481 
-0.538278 0.7408762 0.4016954 
-0.5697992 0.7842613 0.2454855 
-0.5857776 0.8062538 0.08257934 
-0.5857776 0.8062538 -0.08257934 
-0.5697992 0.7842613 -0.2454855 
-0.538278 0.7408762 -0.4016954 
-0.4920741 0.6772819 -0.5469481 
-0.4324477 0.5952132 -0.6772816 
-0.3610252 0.4969085 -0.7891405 
-0.2797548 0.3850495 -0.8794737 
-0.1908536 0.2626874 -0.9458172 
-0.2626874 0.1908536 0.9458172 
-0.3850495 0.2797548 0.8794737 
-0.4969085 0.3610252 0.7891405 
-0.5952132 0.4324477 0.6772816 
-0.6772819 0.4920741 0.5469481 
-0.7408762 0.538278 0.4016954 
-0.7842613 0.5697992 0.2454855 
-0.8062538 0.5857776 0.08257934 
-0.8062538 0.5857776 -0.08257934 
-0.7842613 0.5697992 -0.2454855 
-0.7408762 0.538278 -0.4016954 
-0.6772819 0.4920741 -0.5469481 
-0.5952132 0.4324477 -0.6772816 
-0.4969085 0.3610252 -0.7891405 
-0.3850495 0.2797548 -0.8794737 
-0.2626874 0.1908536 -0.9458172 
-0.3088076 0.1003377 0.9458172 
-0.4526529 0.1470758 0.8794737 
-0.584151 0.1898022 0.7891405 
-0.699715 0.2273512 0.6772816 
-0.7961926 0.2586987 0.5469481 
-0.8709522 0.2829895 0.4016954 
-0.9219545 0.2995611 0.2454855 
-0.9478081 0.3079616 0.08257934 
-0.9478081 0.3079616 -0.08257934 
-0.9219545 0.2995611 -0.2454855 
-0.8709522 0.2829895 -0.4016954 
-0.7961926 0.2586987 -0.5469481 
-0.699715 0.2273512 -0.6772816 
-0.584151 0.1898022 -0.7891405 
-0.4526529 0.1470758 -0.8794737 
-0.3088076 0.1003377 -0.9458172 
-0.3246995 3.976422e-17 0.9458172 
-0.4759474 5.828675e-17 0.8794737 
-0.6142127 7.521936e-17 0.7891405 
-0.7357239 9.010019e-17 0.6772816 
-0.8371665 1.025233e-16 0.5469481 
-0.9157733 1.121499e-16 0.4016954 
-0.9694003 1.187173e-16 0.2454855 
-0.9965845 1.220464e-16 0.08257934 
-0.9965845 1.220464e-16 -0.08257934 
-0.9694003 1.187173e-16 -0.2454855 
-0.9157733 1.121499e-16 -0.4016954 
-0.8371665 1.025233e-16 -0.5469481 
-0.7357239 9.010019e-17 -0.6772816 
-0.6142127 7.521936e-17 -0.7891405 
-0.4759474 5.828675e-17 -0.8794737 
-0.3246995 3.976422e-17 -0.9458172 
-0.3088076 -0.1003377 0.9458172 
-0.4526529 -0.1470758 0.8794737 
-0.584151 -0.1898022 0.7891405 
-0.699715 -0.2273512 0.6772816 
-0.7961926 -0.2586987 0.5469481 
-0.8709522 -0.2829895 0.4016954 
-0.9219545 -0.2995611 0.2454855 
-0.9478081 -0.3079616 0.08257934 
-0.9478081 -0.3079616 -0.08257934 
-0.9219545 -0.2995611 -0.2454855 
-0.8709522 -0.2829895 -0.4016954 
-0.7961926 -0.2586987 -0.5469481 
-0.699715 -0.2273512 -0.6772816 
-0.584151 -0.1898022 -0.7891405 
-0.4526529 -0.1470758 -0.8794737 
-0.3088076 -0.1003377 -0.9458172 
-0.2626874 -0.1908536 0.9458172 
-0.3850495 -0.2797548 0.8794737 
-0.4969085 -0.3610252 0.7891405 
-0.5952132 -0.4324477 0.6772816 
-0.6772819 -0.4920741 0.5469481 
-0.7408762 -0.538278 0.4016954 
-0.7842613 -0.5697992 0.2454855 
-0.8062538 -0.5857776 0.08257934 
-0.8062538 -0.5857776 -0.08257934 
-0.7842613 -0.5697992 -0.2454855 
-0.7408762 -0.538278 -0.4016954 
-0.6772819 -0.4920741 -0.5469481 
-0.5952132 -0.4324477 -0.6772816 
-0.4969085 -0.3610252 -0.7891405 
-0.3850495 -0.2797548 -0.8794737 
-0.2626874 -0.1908536 -0.9458172 
-0.1908536 -0.2626874 0.9458172 
-0.2797548 -0.3850495 0.8794737 
-0.3610252 -0.4969085 0.7891405 
-0.4324477 -0.5952132 0.6772816 
-0.4920741 -0.6772819 0.5469481 
-0.538278 -0.7408762 0.4016954 
-0.5697992 -0.7842613 0.2454855 
-0.5857776 -0.8062538 0.08257934 
-0.5857776 -0.8062538 -0.08257934 
-0.5697992 -0.7842613 -0.2454855 
-0.538278 -0.7408762 -0.4016954 
-0.4920741 -0.6772819 -0.5469481 
-0.4324477 -0.5952132 -0.6772816 
-0.3610252 -0.4969085 -0.7891405 
-0.2797548 -0.3850495 -0.8794737 
-0.1908536 -0.2626874 -0.9458172 
-0.1003377 -0.3088076 0.9458172 
-0.1470758 -0.4526529 0.8794737 
-0.1898022 -0.584151 0.7891405 
-0.2273512 -0.699715 0.6772816 
-0.2586987 -0.7961926 0.5469481 
-0.2829895 -0.8709522 0.4016954 
-0.2995611 -0.9219545 0.2454855 
-0.3079616 -0.9478081 0.08257934 
-0.3079616 -0.9478081 -0.08257934 
-0.2995611 -0.9219545 -0.2454855 
-0.2829895 -0.8709522 -0.4016954 
-0.2586987 -0.7961926 -0.5469481 
-0.2273512 -0.699715 -0.6772816 
-0.1898022 -0.584151 -0.7891405 
-0.1470758 -0.4526529 -0.8794737 
-0.1003377 -0.3088076 -0.9458172 
-5.964633e-17 -0.3246995 0.9458172 
-8.743012e-17 -0.4759474 0.8794737 
-1.128291e-16 -0.6142127 0.7891405 
-1.351503e-16 -0.7357239 0.6772816 
-1.53785e-16 -0.8371665 0.5469481 
-1.682248e-16 -0.9157733 0.4016954 
-1.780759e-16 -0.9694003 0.2454855 
-1.830696e-16 -0.9965845 0.08257934 
-1.830696e-16 -0.9965845 -0.08257934 
-1.780759e-16 -0.9694003 -0.2454855 
-1.682248e-16 -0.9157733 -0.4016954 
-1.53785e-16 -0.8371665 -0.5469481 
-1.351503e-16 -0.7357239 -0.6772816 
-1.128291e-16 -0.6142127 -0.7891405 
-8.743012e-17 -0.4759474 -0.8794737 
-5.964633e-17 -0.3246995 -0.9458172 
0.1003377 -0.3088076 0.9458172 
0.1470758 -0.4526529 0.8794737 
0.1898022 -0.584151 0.7891405 
0.2273512 -0.699715 0.6772816 
0.2586987 -0.7961926 0.5469481 
0.2829895 -0.8709522 0.4016954 
0.2995611 -0.9219545 0.2454855 
0.3079616 -0.9478081 0.08257934 
0.3079616 -0.9478081 -0.08257934 
0.2995611 -0.9219545 -0.2454855 
0.2829895 -0.8709522 -0.4016954 
0.2586987 -0.7961926 -0.5469481 
0.2273512 -0.699715 -0.6772816 
0.1898022 -0.584151 -0.7891405 
0.1470758 -0.4526529 -0.8794737 
0.1003377 -0.3088076 -0.9458172 
0.1908536 -0.2626874 0.9458172 
0.2797548 -0.3850495 0.8794737 
0.3610252 -0.4969085 0.7891405 
0.4324477 -0.5952132 0.6772816 
0.4920741 -0.6772819 0.5469481 
0.538278 -0.7408762 0.4016954 
0.5697992 -0.7842613 0.2454855 
0.5857776 -0.8062538 0.08257934 
0.5857776 -0.8062538 -0.08257934 
0.5697992 -0.7842613 -0.2454855 
0.538278 -0.7408762 -0.4016954 
0.4920741 -0.6772819 -0.5469481 
0.4324477 -0.5952132 -0.6772816 
0.3610252 -0.4969085 -0.7891405 
0.2797548 -0.3850495 -0.8794737 
0.1908536 -0.2626874 -0.9458172 
0.2626874 -0.1908536 0.9458172 
0.3850495 -0.2797548 0.8794737 
0.4969085 -0.3610252 0.7891405 
0.5952132 -0.4324477 0.6772816 
0.6772819 -0.4920741 0.5469481 
0.7408762 -0.538278 0.4016954 
0.7842613 -0.5697992 0.2454855 
0.8062538 -0.5857776 0.08257934 
0.8062538 -0.5857776 -0.08257934 
0.7842613 -0.5697992 -0.2454855 
0.7408762 -0.538278 -0.4016954 
0.6772819 -0.4920741 -0.5469481 
0.5952132 -0.4324477 -0.6772816 
0.4969085 -0.3610252 -0.7891405 
0.3850495 -0.2797548 -0.8794737 
0.2626874 -0.1908536 -0.9458172 
0.3088076 -0.1003377 0.9458172 
0.4526529 -0.1470758 0.8794737 
0.584151 -0.1898022 0.7891405 
0.699715 -0.2273512 0.6772816 
0.7961926 -0.2586987 0.5469481 
0.8709522 -0.2829895 0.4016954 
0.9219545 -0.2995611 0.2454855 
0.9478081 -0.3079616 0.08257934 
0.9478081 -0.3079616 -0.08257934 
0.9219545 -0.2995611 -0.2454855 
0.8709522 -0.2829895 -0.4016954 
0.7961926 -0.2586987 -0.5469481 
0.699715 -0.2273512 -0.6772816 
0.584151 -0.1898022 -0.7891405 
0.4526529 -0.1470758 -0.8794737 
0.3088076 -0.1003377 -0.9458172 
3 0 1 2 
3 1 3 2 
3 3 4 2 
3 4 5 2 
3 5 6 2 
3 6 7 2 
3 7 8 2 
3 8 9 2 
3 9 10 2 
3 10 11 2 
3 11 12 2 
3 12 13 2 
3 13 14 2 
3 14 15 2 
3 15 16 2 
3 16 17 2 
3 17 18 2 
3 18 19 2 
3 19 20 2 
3 20 0 2 
3 21 22 23 
3 23 22 24 
3 24 22 25 
3 25 22 26 
3 26 22 27 
3 27 22 28 
3 28 22 29 
3 29 22 30 
3 30 22 31 
3 31 22 32 
3 32 22 33 
3 33 22 34 
3 34 22 35 
3 35 22 36 
3 36 22 37 
3 37 22 38 
3 38 22 39 
3 39 22 40 
3 40 22 41 
3 41 22 21 
3 0 42 43 
3 0 43 1 
3 42 44 45 
3 42 45 43 
3 44 46 47 
3 44 47 45 
3 46 48 49 
3 46 49 47 
3 48 50 51 
3 48 51 49 
3 50 52 53 
3 50 53 51 
3 52 54 55 
3 52 55 53 
3 54 56 57 
3 54 57 55 
3 56 58 59 
3 56 59 57 
3 58 60 61 
3 58 61 59 
3 60 62 63 
3 60 63 61 
3 62 64 65 
3 62 65 63 
3 64 66 67 
3 64 67 65 
3 66 68 69 
3 66 69 67 
3 68 70 71 
3 68 71 69 
3 70 72 73 
3 70 73 71 
3 72 21 23 
3 72 23 73 
3 1 43 74 
3 1 74 3 
3 43 45 75 
3 43 75 74 
3 45 47 76 
3 45 76 75 
3 47 49 77 
3 47 77 76 
3 49 51 78 
3 49 78 77 
3 51 53 79 
3 51 79 78 
3 53 55 80 
3 53 80 79 
3 55 57 81 
3 55 81 80 
3 57 59 82 
3 57 82 81 
3 59 61 83 
3 59 83 82 
3 61 63 84 
3 61 84 83 
3 63 65 85 
3 63 85 84 
3 65 67 86 
3 65 86 85 
3 67 69 87 
3 67 87 86 
3 69 71 88 
3 69 88 87 
3 71 73 89 
3 71 89 88 
3 73 23 24 
3 73 24 89 
3 3 74 90 
3 3 90 4 
3 74 75 91 
3 74 91 90 
3 75 76 92 
3 75 92 91 
3 76 77 93 
3 76 93 92 
3 77 78 94 
3 77 94 93 
3 78 79 95 
3 78 95 94 
3 79 80 96 
3 79 96 95 
3 80 81 97 
3 80 97 96 
3 81 82 98 
3 81 98 97 
3 82 83 99 
3 82 99 98 
3 83 84 100 
3 83 100 99 
3 84 85 101 
3 84 101 100 
3 85 86 102 
3 85 102 101 
3 86 87 103 
3 86 103 102 
3 87 88 104 
3 87 104 103 
3 88 89 105 
3 88 105 104 
3 89 24 25 
3 89 25 105 
3 4 90 106 
3 4 106 5 
3 90 91 107 
3 90 107 106 
3 91 92 108 
3 91 108 107 
3 92 93 109 
3 92 109 108 
3 93 94 110 
3 93 110 109 
3 94 95 111 
3 94 111 110 
3 95 96 112 
3 95 112 111 
3 96 97 113 
3 96 113 112 
3 97 98 114 
3 97 114 113 
3 98 99 115 
3 98 115 114 
3 99 100 116 
3 99 116 115 
3 100 101 117 
3 100 117 116 
3 101 102 118 
3 101 118 117 
3 102 103 119 
3 102 119 118 
3 103 104 120 
3 103 120 119 
3 104 105 121 
3 104 121 120 
3 105 25 26 
3 105 26 121 
3 5 106 122 
3 5 122 6 
3 106 107 123 
3 106 123 122 
3 107 108 124 
3 107 124 123 
3 108 109 125 
3 108 125 124 
3 109 110 126 
3 109 126 125 
3 110 111 127 
3 110 127 126 
3 111 112 128 
3 111 128 127 
3 112 113 129 
3 112 129 128 
3 113 114 130 
3 113 130 129 
3 114 115 131 
3 114 131 130 
3 115 116 132 
3 115 132 131 
3 116 117 133 
3 116 133 132 
3 117 118 134 
3 117 134 133 
3 118 119 135 
3 118 135 134 
3 119 120 136 
3 119 136 135 
3 120 121 137 
3 120 137 136 
3 121 26 27 
3 121 27 137 
3 6 122 138 
3 6 138 7 
3 122 123 139 
3 122 139 138 
3 123 124 140 
3 123 140 139 
3 124 125 141 
3 124 141 140 
3 125 126 142 
3 125 142 141 
3 126 127 143 
3 126 143 142 
3 127 128 144 
3 127 144 143 
3 128 129 145 
3 128 145 144 
3 129 130 146 
3 129 146 145 
3 130 131 147 
3 130 147 146 
3 131 132 148 
3 131 148 147 
3 132 133 149 
3 132 149 148 
3 133 134 150 
3 133 150 149 
3 134 135 151 
3 134 151 150 
3 135 136 152 
3 135 152 151 
3 136 137 153 
3 136 153 152 
3 137 27 28 
3 137 28 153 
3 7 138 154 
3 7 154 8 
3 138 139 155 
3 138 155 154 
3 139 140 156 
3 139 156 155 
3 140 141 157 
3 140 157 156 
3 141 142 158 
3 141 158 157 
3 142 143 159 
3 142 159 158 
3 143 144 160 
3 143 160 159 
3 144 145 161 
3 144 161 160 
3 145 146 162 
3 145 162 161 
3 146 147 163 
3 146 163 162 
3 147 148 164 
3 147 164 163 
3 148 149 165 
3 148 165 164 
3 149 150 166 
3 149 166 165 
3 150 151 167 
3 150 167 166 
3 151 152 168 
3 151 168 167 
3 152 153 169 
3 152 169 168 
3 153 28 29 
3 153 29 169 
3 8 154 170 
3 8 170 9 
3 154 155 171 
3 154 171 170 
3 155 156 172 
3 155 172 171 
3 156 157 173 
3 156 173 172 
3 157 158 174 
3 157 174 173 
3 158 159 175 
3 158 175 174 
3 159 160 176 
3 159 176 175 
3 160 161 177 
3 160 177 176 
3 161 162 178 
3 161 178 177 
3 162 163 179 
3 162 179 178 
3 163 164 180 
3 163 180 179 
3 164 165 181 
3 164 181 180 
3 165 166 182 
3 165 182 181 
3 166 167 183 
3 166 183 182 
3 167 168 184 
3 167 184 183 
3 168 169 185 
3 168 185 184 
3 169 29 30 
3 169 30 185 
3 9 170 186 
3 9 186 10 
3 170 171 187 
3 170 187 186 
3 171 172 188 
3 171 188 187 
3 172 173 189 
3 172 189 188 
3 173 174 190 
3 173 190 189 
3 174 175 191 
3 174 191 190 
3 175 176 192 
3 175 192 191 
3 176 177 193 
3 176 193 192 
3 177 178 194 
3 177 194 193 
3 178 179 195 
3 178 195 194 
3 179 180 196 
3 179 196 195 
3 180 181 197 
3 180 197 196 
3 181 182 198 
3 181 198 197 
3 182 183 199 
3 182 199 198 
3 183 184 200 
3 183 200 199 
3 184 185 201 
3 184 201 200 
3 185 30 31 
3 185 31 201 
3 10 186 202 
3 10 202 11 
3 186 187 203 
3 186 203 202 
3 187 188 204 
3 187 204 203 
3 188 189 205 
3 188 205 204 
3 189 190 206 
3 189 206 205 
3 190 191 207 
3 190 207 206 
3 191 192 208 
3 191 208 207 
3 192 193 209 
3 192 209 208 
3 193 194 210 
3 193 210 209 
3 194 195 211 
3 194 211 210 
3 195 196 212 
3 195 212 211 
3 196 197 213 
3 196 213 212 
3 197 198 214 
3 197 214 213 
3 198 199 215 
3 198 215 214 
3 199 200 216 
3 199 216 215 
3 200 201 217 
3 200 217 216 
3 201 31 32 
3 201 32 217 
3 11 202 218 
3 11 218 12 
3 202 203 219 
3 202 219 218 
3 203 204 220 
3 203 220 219 
3 204 205 221 
3 204 221 220 
3 205 206 222 
3 205 222 221 
3 206 207 223 
3 206 223 222 
3 207 208 224 
3 207 224 223 
3 208 209 225 
3 208 225 224 
3 209 210 226 
3 209 226 225 
3 210 211 227 
3 210 227 226 
3 211 212 228 
3 211 228 227 
3 212 213 229 
3 212 229 228 
3 213 214 230 
3 213 230 229 
3 214 215 231 
3 214 231 230 
3 215 216 232 
3 215 232 231 
3 216 217 233 
3 216 233 232 
3 217 32 33 
3 217 33 233 
3 12 218 234 
3 12 234 13 
3 218 219 235 
3 218 235 234 
3 219 220 236 
3 219 236 235 
3 220 221 237 
3 220 237 236 
3 221 222 238 
3 221 238 237 
3 222 223 239 
3 222 239 238 
3 223 224 240 
3 223 240 239 
3 224 225 241 
3 224 241 240 
3 225 226 242 
3 225 242 241 
3 226 227 243 
3 226 243 242 
3 227 228 244 
3 227 244 243 
3 228 229 245 
3 228 245 244 
3 229 230 246 
3 229 246 245 
3 230 231 247 
3 230 247 246 
3 231 232 248 
3 231 248 247 
3 232 233 249 
3 232 249 248 
3 233 33 34 
3 233 34 249 
3 13 234 250 
3 13 250 14 
3 234 235 251 
3 234 251 250 
3 235 236 252 
3 235 252 251 
3 236 237 253 
3 236 253 252 
3 237 238 254 
3 237 254 253 
3 238 239 255 
3 238 255 254 
3 239 240 256 
3 239 256 255 
3 240 241 257 
3 240 257 256 
3 241 242 258 
3 241 258 257 
3 242 243 259 
3 242 259 258 
3 243 244 260 
3 243 260 259 
3 244 245 261 
3 244 261 260 
3 245 246 262 
3 245 262 261 
3 246 247 263 
3 246 263 262 
3 247 248 264 
3 247 264 263 
3 248 249 265 
3 248 265 264 
3 249 34 35 
3 249 35 265 
3 14 250 266 
3 14 266 15 
3 250 251 267 
3 250 267 266 
3 251 252 268 
3 251 268 267 
3 252 253 269 
3 252 269 268 
3 253 254 270 
3 253 270 269 
3 254 255 271 
3 254 271 270 
3 255 256 272 
3 255 272 271 
3 256 257 273 
3 256 273 272 
3 257 258 274 
3 257 274 273 
3 258 259 275 
3 258 275 274 
3 259 260 276 
3 259 276 275 
3 260 261 277 
3 260 277 276 
3 261 262 278 
3 261 278 277 
3 262 263 279 
3 262 279 278 
3 263 264 280 
3 263 280 279 
3 264 265 281 
3 264 281 280 
3 265 35 36 
3 265 36 281 
3 15 266 282 
3 15 282 16 
3 266 267 283 
3 266 283 282 
3 267 268 284 
3 267 284 283 
3 268 269 285 
3 268 285 284 
3 269 270 286 
3 269 286 285 
3 270 271 287 
3 270 287 286 
3 271 272 288 
3 271 288 287 
3 272 273 289 
3 272 289 288 
3 273 274 290 
3 273 290 289 
3 274 275 291 
3 274 291 290 
3 275 276 292 
3 275 292 291 
3 276 277 293 
3 276 293 292 
3 277 278 294 
3 277 294 293 
3 278 279 295 
3 278 295 294 
3 279 280 296 
3 279 296 295 
3 280 281 297 
3 280 297 296 
3 281 36 37 
3 281 37 297 
3 16 282 298 
3 16 298 17 
3 282 283 299 
3 282 299 298 
3 283 284 300 
3 283 300 299 
3 284 285 301 
3 284 301 300 
3 285 286 302 
3 285 302 301 
3 286 287 303 
3 286 303 302 
3 287 288 304 
3 287 304 303 
3 288 289 305 
3 288 305 304 
3 289 290 306 
3 289 306 305 
3 290 291 307 
3 290 307 306 
3 291 292 308 
3 291 308 307 
3 292 293 309 
3 292 309 308 
3 293 294 310 
3 293 310 309 
3 294 295 311 
3 294 311 310 
3 295 296 312 
3 295 312 311 
3 296 297 313 
3 296 313 312 
3 297 37 38 
3 297 38 313 
3 17 298 314 
3 17 314 18 
3 298 299 315 
3 298 315 314 
3 299 300 316 
3 299 316 315 
3 300 301 317 
3 300 317 316 
3 301 302 318 
3 301 318 317 
3 302 303 319 
3 302 319 318 
3 303 304 320 
3 303 320 319 
3 304 305 321 
3 304 321 320 
3 305 306 322 
3 305 322 321 
3 306 307 323 
3 306 323 322 
3 307 308 324 
3 307 324 323 
3 308 309 325 
3 308 325 324 
3 309 310 326 
3 309 326 325 
3 310 311 327 
3 310 327 326 
3 311 312 328 
3 311 328 327 
3 312 313 329 
3 312 329 328 
3 313 38 39 
3 313 39 329 
3 18 314 330 
3 18 330 19 
3 314 315 331 
3 314 331 330 
3 315 316 332 
3 315 332 331 
3 316 317 333 
3 316 333 332 
3 317 318 334 
3 317 334 333 
3 318 319 335 
3 318 335 334 
3 319 320 336 
3 319 336 335 
3 320 321 337 
3 320 337 336 
3 321 322 338 
3 321 338 337 
3 322 323 339 
3 322 339 338 
3 323 324 340 
3 323 340 339 
3 324 325 341 
3 324 341 340 
3 325 326 342 
3 325 342 341 
3 326 327 343 
3 326 343 342 
3 327 328 344 
3 327 344 343 
3 328 329 345 
3 328 345 344 
3 329 39 40 
3 329 40 345 
3 19 330 346 
3 19 346 20 
3 330 331 347 
3 330 347 346 
3 331 332 348 
3 331 348 347 
3 332 333 349 
3 332 349 348 
3 333 334 350 
3 333 350 349 
3 334 335 351 
3 334 351 350 
3 335 336 352 
3 335 352 351 
3 336 337 353 
3 336 353 352 
3 337 338 354 
3 337 354 353 
3 338 339 355 
3 338 355 354 
3 339 340 356 
3 339 356 355 
3 340 341 357 
3 340 357 356 
3 341 342 358 
3 341 358 357 
3 342 343 359 
3 342 359 358 
3 343 344 360 
3 343 360 359 
3 344 345 361 
3 344 361 360 
3 345 40 41 
3 345 41 361 
3 20 346 42 
3 20 42 0 
3 346 347 44 
3 346 44 42 
3 347 348 46 
3 347 46 44 
3 348 349 48 
3 348 48 46 
3 349 350 50 
3 349 50 48 
3 350 351 52 
3 350 52 50 
3 351 352 54 
3 351 54 52 
3 352 353 56 
3 352 56 54 
3 353 354 58 
3 353 58 56 
3 354 355 60 
3 354 60 58 
3 355 356 62 
3 355 62 60 
3 356 357 64 
3 356 64 62 
3 357 358 66 
3 357 66 64 
3 358 359 68 
3 358 68 66 
3 359 360 70 
3 359 70 68 
3 360 361 72 
3 360 72 70 
3 361 41 21 
3 361 21 72 
